<?xml version="1.0" standalone="no"?>
<!DOCTYPE svg PUBLIC "-//W3C//DTD SVG 20010904//EN"
 "http://www.w3.org/TR/2001/REC-SVG-20010904/DTD/svg10.dtd">
<svg version="1.0" xmlns="http://www.w3.org/2000/svg"
 width="250.000000pt" height="250.000000pt" viewBox="0 0 250.000000 250.000000"
 preserveAspectRatio="xMidYMid meet">
<metadata>
Created by potrace 1.14, written by Peter Selinger 2001-2017
</metadata>
<g transform="translate(0.000000,250.000000) scale(0.100000,-0.100000)"
fill="#000000" stroke="none">
<path d="M1073 2234 c-91 -15 -133 -34 -187 -84 -115 -106 -107 -298 17 -412
49 -45 108 -59 262 -64 77 -3 153 -10 168 -16 36 -14 52 -52 37 -89 -19 -45
-145 -91 -249 -92 -123 0 -228 48 -351 162 -30 28 -88 68 -128 88 -66 33 -82
37 -148 36 -59 0 -85 -6 -128 -27 -219 -107 -234 -399 -41 -788 68 -135 138
-232 250 -343 185 -185 408 -303 645 -341 66 -11 197 -11 260 -2 235 37 423
214 424 398 0 143 -140 282 -298 294 -47 4 -83 -2 -177 -30 -130 -37 -190 -42
-247 -19 -101 43 -152 162 -115 272 30 87 136 178 251 213 117 36 219 19 291
-49 39 -35 100 -126 141 -207 93 -186 309 -236 474 -110 53 40 89 123 91 209
5 256 -220 625 -498 815 -225 155 -510 226 -744 186z"/>
</g>
</svg>
